<?xml version="1.0" encoding="iso-8859-1"?>
<!-- Uploaded to: SVG Repo, www.svgrepo.com, Generator: SVG Repo Mixer Tools -->
<svg fill="#000000" height="800px" width="800px" version="1.1" id="Layer_1" xmlns="http://www.w3.org/2000/svg" xmlns:xlink="http://www.w3.org/1999/xlink" 
	 viewBox="0 0 508.772 508.772" xml:space="preserve">
<g>
	<g>
		<g>
			<path d="M458.761,235.503c18.909-11.767,40.786-11.49,41.099-11.49c2.768,0.078,5.372-1.163,7.055-3.315
				c1.692-2.161,2.274-4.999,1.553-7.645L456.4,22.137c-1.033-3.784-4.469-6.396-8.374-6.396h-0.174
				c-2.135,0.043-139.854,4.191-268.843,77.807V75.585c0-9.068-7.385-16.453-16.453-16.453h-36.517
				c-9.068,0-16.453,7.385-16.453,16.453v66.169C66.36,178.028,27.596,224.612,0,284.759h431.052
				c1.146-13.763,5.198-25.27,11.906-34.53c27.023,1.866,48.458,24.394,48.458,51.886v112.814c0,19.144-15.568,34.712-34.712,34.712
				c-19.144,0-34.712-15.568-34.712-34.712c0-28.715-23.352-52.068-52.068-52.068c-25.747,0-47.13,18.805-51.287,43.39h-18.137
				c-4.799,0-8.678,3.879-8.678,8.678v43.39c0,4.799,3.879,8.678,8.678,8.678v17.356c0,4.799,3.879,8.678,8.678,8.678
				s8.678-3.879,8.678-8.678v-17.356h17.356v17.356c0,4.799,3.879,8.678,8.678,8.678c4.799,0,8.678-3.879,8.678-8.678v-17.356
				c4.799,0,8.678-3.879,8.678-8.678v-43.39c0-4.799-3.879-8.678-8.678-8.678h-16.124c3.879-14.935,17.347-26.034,33.48-26.034
				c19.144,0,34.712,15.568,34.712,34.712c0,28.715,23.352,52.068,52.068,52.068c28.715,0,52.068-23.352,52.068-52.068V302.115
				C508.772,270.579,487.615,243.929,458.761,235.503z M126.941,76.488h34.712v26.719c-12.028,7.541-23.639,15.568-34.712,23.986
				V76.488z M317.857,258.725H144.297c-4.799,0-8.678-3.879-8.678-8.678s3.879-8.678,8.678-8.678h173.559
				c4.799,0,8.678,3.879,8.678,8.678S322.655,258.725,317.857,258.725z M333.156,212.263c-1.649,1.953-4.07,3.072-6.621,3.072
				H126.941c-3.115,0-5.988-1.658-7.532-4.365c-1.545-2.69-1.527-6.014,0.052-8.704c50.679-86.467,182.81-107.477,188.407-108.318
				c4.729-0.694,9.094,2.465,9.867,7.151l17.356,104.136C335.516,207.751,334.805,210.319,333.156,212.263z M395.958,180.623
				c-23.925,0-43.39-19.465-43.39-43.39c0-23.925,19.465-43.39,43.39-43.39c23.925,0,43.39,19.465,43.39,43.39
				C439.348,161.158,419.883,180.623,395.958,180.623z"/>
			<path d="M143.194,197.979h173.091l-14.206-85.296C274.622,118.333,186.94,140.357,143.194,197.979z"/>
			<path d="M395.958,111.199c-14.353,0-26.034,11.681-26.034,26.034c0,14.353,11.681,26.034,26.034,26.034
				c14.353,0,26.034-11.681,26.034-26.034C421.992,122.88,410.312,111.199,395.958,111.199z M395.958,145.911
				c-4.79,0-8.678-3.888-8.678-8.678c0-4.79,3.888-8.678,8.678-8.678s8.678,3.888,8.678,8.678
				C404.636,142.024,400.748,145.911,395.958,145.911z"/>
			<path d="M430.67,328.149v-26.034H0.087l4.139,8.296c8.157,16.297,24.541,26.416,42.748,26.416h375.018
				C426.791,336.827,430.67,332.948,430.67,328.149z"/>
		</g>
	</g>
</g>
</svg>